<?xml version="1.0" encoding="utf-8" standalone="no"?>
<!DOCTYPE svg PUBLIC "-//W3C//DTD SVG 1.1//EN"
  "http://www.w3.org/Graphics/SVG/1.1/DTD/svg11.dtd">
<svg xmlns:xlink="http://www.w3.org/1999/xlink" width="669.988125pt" height="281.634375pt" viewBox="0 0 669.988125 281.634375" xmlns="http://www.w3.org/2000/svg" version="1.1">
 <metadata>
  <rdf:RDF xmlns:dc="http://purl.org/dc/elements/1.1/" xmlns:cc="http://creativecommons.org/ns#" xmlns:rdf="http://www.w3.org/1999/02/22-rdf-syntax-ns#">
   <cc:Work>
    <dc:type rdf:resource="http://purl.org/dc/dcmitype/StillImage"/>
    <dc:date>2024-11-29T16:10:17.404627</dc:date>
    <dc:format>image/svg+xml</dc:format>
    <dc:creator>
     <cc:Agent>
      <dc:title>Matplotlib v3.8.3, https://matplotlib.org/</dc:title>
     </cc:Agent>
    </dc:creator>
   </cc:Work>
  </rdf:RDF>
 </metadata>
 <defs>
  <style type="text/css">*{stroke-linejoin: round; stroke-linecap: butt}</style>
 </defs>
 <g id="figure_1">
  <g id="patch_1">
   <path d="M 0 281.634375 
L 669.988125 281.634375 
L 669.988125 0 
L 0 0 
z
" style="fill: #ffffff"/>
  </g>
  <g id="axes_1">
   <g id="patch_2">
    <path d="M 42.828125 244.078125 
L 489.228125 244.078125 
L 489.228125 22.318125 
L 42.828125 22.318125 
z
" style="fill: #ffffff"/>
   </g>
   <g id="PathCollection_1">
    <defs>
     <path id="ma9cefc1a48" d="M 0 3.535534 
C 0.937635 3.535534 1.836992 3.163008 2.5 2.5 
C 3.163008 1.836992 3.535534 0.937635 3.535534 0 
C 3.535534 -0.937635 3.163008 -1.836992 2.5 -2.5 
C 1.836992 -3.163008 0.937635 -3.535534 0 -3.535534 
C -0.937635 -3.535534 -1.836992 -3.163008 -2.5 -2.5 
C -3.163008 -1.836992 -3.535534 -0.937635 -3.535534 0 
C -3.535534 0.937635 -3.163008 1.836992 -2.5 2.5 
C -1.836992 3.163008 -0.937635 3.535534 0 3.535534 
z
" style="stroke: #000000"/>
    </defs>
    <g clip-path="url(#p88111cf645)">
     <use xlink:href="#ma9cefc1a48" x="63.119034" y="225.597995" style="stroke: #000000"/>
     <use xlink:href="#ma9cefc1a48" x="71.693506" y="187.48843" style="stroke: #000000"/>
     <use xlink:href="#ma9cefc1a48" x="101.813116" y="58.004357" style="stroke: #000000"/>
     <use xlink:href="#ma9cefc1a48" x="106.469117" y="73.142542" style="stroke: #000000"/>
     <use xlink:href="#ma9cefc1a48" x="125.131341" y="145.448197" style="stroke: #000000"/>
     <use xlink:href="#ma9cefc1a48" x="144.323176" y="193.919835" style="stroke: #000000"/>
     <use xlink:href="#ma9cefc1a48" x="150.366445" y="198.263472" style="stroke: #000000"/>
     <use xlink:href="#ma9cefc1a48" x="183.357756" y="206.558366" style="stroke: #000000"/>
     <use xlink:href="#ma9cefc1a48" x="186.840868" y="208.119337" style="stroke: #000000"/>
     <use xlink:href="#ma9cefc1a48" x="197.692228" y="216.970509" style="stroke: #000000"/>
     <use xlink:href="#ma9cefc1a48" x="225.398007" y="224.39808" style="stroke: #000000"/>
     <use xlink:href="#ma9cefc1a48" x="230.392866" y="220.738544" style="stroke: #000000"/>
     <use xlink:href="#ma9cefc1a48" x="248.682596" y="211.641075" style="stroke: #000000"/>
     <use xlink:href="#ma9cefc1a48" x="266.087896" y="208.453926" style="stroke: #000000"/>
     <use xlink:href="#ma9cefc1a48" x="273.52368" y="214.286028" style="stroke: #000000"/>
     <use xlink:href="#ma9cefc1a48" x="301.552387" y="224.02568" style="stroke: #000000"/>
     <use xlink:href="#ma9cefc1a48" x="307.425128" y="224.25694" style="stroke: #000000"/>
     <use xlink:href="#ma9cefc1a48" x="319.93915" y="214.460826" style="stroke: #000000"/>
     <use xlink:href="#ma9cefc1a48" x="345.940144" y="206.835539" style="stroke: #000000"/>
     <use xlink:href="#ma9cefc1a48" x="347.60776" y="206.724842" style="stroke: #000000"/>
     <use xlink:href="#ma9cefc1a48" x="357.644385" y="215.215092" style="stroke: #000000"/>
     <use xlink:href="#ma9cefc1a48" x="387.149489" y="224.312492" style="stroke: #000000"/>
     <use xlink:href="#ma9cefc1a48" x="388.038424" y="224.351034" style="stroke: #000000"/>
     <use xlink:href="#ma9cefc1a48" x="397.070349" y="216.338055" style="stroke: #000000"/>
     <use xlink:href="#ma9cefc1a48" x="428.232512" y="205.165507" style="stroke: #000000"/>
     <use xlink:href="#ma9cefc1a48" x="431.807571" y="207.829912" style="stroke: #000000"/>
     <use xlink:href="#ma9cefc1a48" x="448.831487" y="219.870474" style="stroke: #000000"/>
    </g>
   </g>
   <g id="matplotlib.axis_1">
    <g id="xtick_1">
     <g id="line2d_1">
      <defs>
       <path id="m2912af06d6" d="M 0 0 
L 0 3.5 
" style="stroke: #000000; stroke-width: 0.8"/>
      </defs>
      <g>
       <use xlink:href="#m2912af06d6" x="63.119034" y="244.078125" style="stroke: #000000; stroke-width: 0.8"/>
      </g>
     </g>
     <g id="text_1">
      <!-- 0 -->
      <g transform="translate(59.937784 258.676562) scale(0.1 -0.1)">
       <defs>
        <path id="DejaVuSans-30" d="M 2034 4250 
Q 1547 4250 1301 3770 
Q 1056 3291 1056 2328 
Q 1056 1369 1301 889 
Q 1547 409 2034 409 
Q 2525 409 2770 889 
Q 3016 1369 3016 2328 
Q 3016 3291 2770 3770 
Q 2525 4250 2034 4250 
z
M 2034 4750 
Q 2819 4750 3233 4129 
Q 3647 3509 3647 2328 
Q 3647 1150 3233 529 
Q 2819 -91 2034 -91 
Q 1250 -91 836 529 
Q 422 1150 422 2328 
Q 422 3509 836 4129 
Q 1250 4750 2034 4750 
z
" transform="scale(0.015625)"/>
       </defs>
       <use xlink:href="#DejaVuSans-30"/>
      </g>
     </g>
    </g>
    <g id="xtick_2">
     <g id="line2d_2">
      <g>
       <use xlink:href="#m2912af06d6" x="144.28267" y="244.078125" style="stroke: #000000; stroke-width: 0.8"/>
      </g>
     </g>
     <g id="text_2">
      <!-- 20 -->
      <g transform="translate(137.92017 258.676562) scale(0.1 -0.1)">
       <defs>
        <path id="DejaVuSans-32" d="M 1228 531 
L 3431 531 
L 3431 0 
L 469 0 
L 469 531 
Q 828 903 1448 1529 
Q 2069 2156 2228 2338 
Q 2531 2678 2651 2914 
Q 2772 3150 2772 3378 
Q 2772 3750 2511 3984 
Q 2250 4219 1831 4219 
Q 1534 4219 1204 4116 
Q 875 4013 500 3803 
L 500 4441 
Q 881 4594 1212 4672 
Q 1544 4750 1819 4750 
Q 2544 4750 2975 4387 
Q 3406 4025 3406 3419 
Q 3406 3131 3298 2873 
Q 3191 2616 2906 2266 
Q 2828 2175 2409 1742 
Q 1991 1309 1228 531 
z
" transform="scale(0.015625)"/>
       </defs>
       <use xlink:href="#DejaVuSans-32"/>
       <use xlink:href="#DejaVuSans-30" x="63.623047"/>
      </g>
     </g>
    </g>
    <g id="xtick_3">
     <g id="line2d_3">
      <g>
       <use xlink:href="#m2912af06d6" x="225.446307" y="244.078125" style="stroke: #000000; stroke-width: 0.8"/>
      </g>
     </g>
     <g id="text_3">
      <!-- 40 -->
      <g transform="translate(219.083807 258.676562) scale(0.1 -0.1)">
       <defs>
        <path id="DejaVuSans-34" d="M 2419 4116 
L 825 1625 
L 2419 1625 
L 2419 4116 
z
M 2253 4666 
L 3047 4666 
L 3047 1625 
L 3713 1625 
L 3713 1100 
L 3047 1100 
L 3047 0 
L 2419 0 
L 2419 1100 
L 313 1100 
L 313 1709 
L 2253 4666 
z
" transform="scale(0.015625)"/>
       </defs>
       <use xlink:href="#DejaVuSans-34"/>
       <use xlink:href="#DejaVuSans-30" x="63.623047"/>
      </g>
     </g>
    </g>
    <g id="xtick_4">
     <g id="line2d_4">
      <g>
       <use xlink:href="#m2912af06d6" x="306.609943" y="244.078125" style="stroke: #000000; stroke-width: 0.8"/>
      </g>
     </g>
     <g id="text_4">
      <!-- 60 -->
      <g transform="translate(300.247443 258.676562) scale(0.1 -0.1)">
       <defs>
        <path id="DejaVuSans-36" d="M 2113 2584 
Q 1688 2584 1439 2293 
Q 1191 2003 1191 1497 
Q 1191 994 1439 701 
Q 1688 409 2113 409 
Q 2538 409 2786 701 
Q 3034 994 3034 1497 
Q 3034 2003 2786 2293 
Q 2538 2584 2113 2584 
z
M 3366 4563 
L 3366 3988 
Q 3128 4100 2886 4159 
Q 2644 4219 2406 4219 
Q 1781 4219 1451 3797 
Q 1122 3375 1075 2522 
Q 1259 2794 1537 2939 
Q 1816 3084 2150 3084 
Q 2853 3084 3261 2657 
Q 3669 2231 3669 1497 
Q 3669 778 3244 343 
Q 2819 -91 2113 -91 
Q 1303 -91 875 529 
Q 447 1150 447 2328 
Q 447 3434 972 4092 
Q 1497 4750 2381 4750 
Q 2619 4750 2861 4703 
Q 3103 4656 3366 4563 
z
" transform="scale(0.015625)"/>
       </defs>
       <use xlink:href="#DejaVuSans-36"/>
       <use xlink:href="#DejaVuSans-30" x="63.623047"/>
      </g>
     </g>
    </g>
    <g id="xtick_5">
     <g id="line2d_5">
      <g>
       <use xlink:href="#m2912af06d6" x="387.77358" y="244.078125" style="stroke: #000000; stroke-width: 0.8"/>
      </g>
     </g>
     <g id="text_5">
      <!-- 80 -->
      <g transform="translate(381.41108 258.676562) scale(0.1 -0.1)">
       <defs>
        <path id="DejaVuSans-38" d="M 2034 2216 
Q 1584 2216 1326 1975 
Q 1069 1734 1069 1313 
Q 1069 891 1326 650 
Q 1584 409 2034 409 
Q 2484 409 2743 651 
Q 3003 894 3003 1313 
Q 3003 1734 2745 1975 
Q 2488 2216 2034 2216 
z
M 1403 2484 
Q 997 2584 770 2862 
Q 544 3141 544 3541 
Q 544 4100 942 4425 
Q 1341 4750 2034 4750 
Q 2731 4750 3128 4425 
Q 3525 4100 3525 3541 
Q 3525 3141 3298 2862 
Q 3072 2584 2669 2484 
Q 3125 2378 3379 2068 
Q 3634 1759 3634 1313 
Q 3634 634 3220 271 
Q 2806 -91 2034 -91 
Q 1263 -91 848 271 
Q 434 634 434 1313 
Q 434 1759 690 2068 
Q 947 2378 1403 2484 
z
M 1172 3481 
Q 1172 3119 1398 2916 
Q 1625 2713 2034 2713 
Q 2441 2713 2670 2916 
Q 2900 3119 2900 3481 
Q 2900 3844 2670 4047 
Q 2441 4250 2034 4250 
Q 1625 4250 1398 4047 
Q 1172 3844 1172 3481 
z
" transform="scale(0.015625)"/>
       </defs>
       <use xlink:href="#DejaVuSans-38"/>
       <use xlink:href="#DejaVuSans-30" x="63.623047"/>
      </g>
     </g>
    </g>
    <g id="xtick_6">
     <g id="line2d_6">
      <g>
       <use xlink:href="#m2912af06d6" x="468.937216" y="244.078125" style="stroke: #000000; stroke-width: 0.8"/>
      </g>
     </g>
     <g id="text_6">
      <!-- 100 -->
      <g transform="translate(459.393466 258.676562) scale(0.1 -0.1)">
       <defs>
        <path id="DejaVuSans-31" d="M 794 531 
L 1825 531 
L 1825 4091 
L 703 3866 
L 703 4441 
L 1819 4666 
L 2450 4666 
L 2450 531 
L 3481 531 
L 3481 0 
L 794 0 
L 794 531 
z
" transform="scale(0.015625)"/>
       </defs>
       <use xlink:href="#DejaVuSans-31"/>
       <use xlink:href="#DejaVuSans-30" x="63.623047"/>
       <use xlink:href="#DejaVuSans-30" x="127.246094"/>
      </g>
     </g>
    </g>
    <g id="text_7">
     <!-- Time [s] -->
     <g transform="translate(245.699219 272.354687) scale(0.1 -0.1)">
      <defs>
       <path id="DejaVuSans-54" d="M -19 4666 
L 3928 4666 
L 3928 4134 
L 2272 4134 
L 2272 0 
L 1638 0 
L 1638 4134 
L -19 4134 
L -19 4666 
z
" transform="scale(0.015625)"/>
       <path id="DejaVuSans-69" d="M 603 3500 
L 1178 3500 
L 1178 0 
L 603 0 
L 603 3500 
z
M 603 4863 
L 1178 4863 
L 1178 4134 
L 603 4134 
L 603 4863 
z
" transform="scale(0.015625)"/>
       <path id="DejaVuSans-6d" d="M 3328 2828 
Q 3544 3216 3844 3400 
Q 4144 3584 4550 3584 
Q 5097 3584 5394 3201 
Q 5691 2819 5691 2113 
L 5691 0 
L 5113 0 
L 5113 2094 
Q 5113 2597 4934 2840 
Q 4756 3084 4391 3084 
Q 3944 3084 3684 2787 
Q 3425 2491 3425 1978 
L 3425 0 
L 2847 0 
L 2847 2094 
Q 2847 2600 2669 2842 
Q 2491 3084 2119 3084 
Q 1678 3084 1418 2786 
Q 1159 2488 1159 1978 
L 1159 0 
L 581 0 
L 581 3500 
L 1159 3500 
L 1159 2956 
Q 1356 3278 1631 3431 
Q 1906 3584 2284 3584 
Q 2666 3584 2933 3390 
Q 3200 3197 3328 2828 
z
" transform="scale(0.015625)"/>
       <path id="DejaVuSans-65" d="M 3597 1894 
L 3597 1613 
L 953 1613 
Q 991 1019 1311 708 
Q 1631 397 2203 397 
Q 2534 397 2845 478 
Q 3156 559 3463 722 
L 3463 178 
Q 3153 47 2828 -22 
Q 2503 -91 2169 -91 
Q 1331 -91 842 396 
Q 353 884 353 1716 
Q 353 2575 817 3079 
Q 1281 3584 2069 3584 
Q 2775 3584 3186 3129 
Q 3597 2675 3597 1894 
z
M 3022 2063 
Q 3016 2534 2758 2815 
Q 2500 3097 2075 3097 
Q 1594 3097 1305 2825 
Q 1016 2553 972 2059 
L 3022 2063 
z
" transform="scale(0.015625)"/>
       <path id="DejaVuSans-20" transform="scale(0.015625)"/>
       <path id="DejaVuSans-5b" d="M 550 4863 
L 1875 4863 
L 1875 4416 
L 1125 4416 
L 1125 -397 
L 1875 -397 
L 1875 -844 
L 550 -844 
L 550 4863 
z
" transform="scale(0.015625)"/>
       <path id="DejaVuSans-73" d="M 2834 3397 
L 2834 2853 
Q 2591 2978 2328 3040 
Q 2066 3103 1784 3103 
Q 1356 3103 1142 2972 
Q 928 2841 928 2578 
Q 928 2378 1081 2264 
Q 1234 2150 1697 2047 
L 1894 2003 
Q 2506 1872 2764 1633 
Q 3022 1394 3022 966 
Q 3022 478 2636 193 
Q 2250 -91 1575 -91 
Q 1294 -91 989 -36 
Q 684 19 347 128 
L 347 722 
Q 666 556 975 473 
Q 1284 391 1588 391 
Q 1994 391 2212 530 
Q 2431 669 2431 922 
Q 2431 1156 2273 1281 
Q 2116 1406 1581 1522 
L 1381 1569 
Q 847 1681 609 1914 
Q 372 2147 372 2553 
Q 372 3047 722 3315 
Q 1072 3584 1716 3584 
Q 2034 3584 2315 3537 
Q 2597 3491 2834 3397 
z
" transform="scale(0.015625)"/>
       <path id="DejaVuSans-5d" d="M 1947 4863 
L 1947 -844 
L 622 -844 
L 622 -397 
L 1369 -397 
L 1369 4416 
L 622 4416 
L 622 4863 
L 1947 4863 
z
" transform="scale(0.015625)"/>
      </defs>
      <use xlink:href="#DejaVuSans-54"/>
      <use xlink:href="#DejaVuSans-69" x="57.958984"/>
      <use xlink:href="#DejaVuSans-6d" x="85.742188"/>
      <use xlink:href="#DejaVuSans-65" x="183.154297"/>
      <use xlink:href="#DejaVuSans-20" x="244.677734"/>
      <use xlink:href="#DejaVuSans-5b" x="276.464844"/>
      <use xlink:href="#DejaVuSans-73" x="315.478516"/>
      <use xlink:href="#DejaVuSans-5d" x="367.578125"/>
     </g>
    </g>
   </g>
   <g id="matplotlib.axis_2">
    <g id="ytick_1">
     <g id="line2d_7">
      <defs>
       <path id="m5a316f5d49" d="M 0 0 
L -3.5 0 
" style="stroke: #000000; stroke-width: 0.8"/>
      </defs>
      <g>
       <use xlink:href="#m5a316f5d49" x="42.828125" y="225.597995" style="stroke: #000000; stroke-width: 0.8"/>
      </g>
     </g>
     <g id="text_8">
      <!-- 0.000 -->
      <g transform="translate(7.2 229.397213) scale(0.1 -0.1)">
       <defs>
        <path id="DejaVuSans-2e" d="M 684 794 
L 1344 794 
L 1344 0 
L 684 0 
L 684 794 
z
" transform="scale(0.015625)"/>
       </defs>
       <use xlink:href="#DejaVuSans-30"/>
       <use xlink:href="#DejaVuSans-2e" x="63.623047"/>
       <use xlink:href="#DejaVuSans-30" x="95.410156"/>
       <use xlink:href="#DejaVuSans-30" x="159.033203"/>
       <use xlink:href="#DejaVuSans-30" x="222.65625"/>
      </g>
     </g>
    </g>
    <g id="ytick_2">
     <g id="line2d_8">
      <g>
       <use xlink:href="#m5a316f5d49" x="42.828125" y="200.868517" style="stroke: #000000; stroke-width: 0.8"/>
      </g>
     </g>
     <g id="text_9">
      <!-- 0.025 -->
      <g transform="translate(7.2 204.667736) scale(0.1 -0.1)">
       <defs>
        <path id="DejaVuSans-35" d="M 691 4666 
L 3169 4666 
L 3169 4134 
L 1269 4134 
L 1269 2991 
Q 1406 3038 1543 3061 
Q 1681 3084 1819 3084 
Q 2600 3084 3056 2656 
Q 3513 2228 3513 1497 
Q 3513 744 3044 326 
Q 2575 -91 1722 -91 
Q 1428 -91 1123 -41 
Q 819 9 494 109 
L 494 744 
Q 775 591 1075 516 
Q 1375 441 1709 441 
Q 2250 441 2565 725 
Q 2881 1009 2881 1497 
Q 2881 1984 2565 2268 
Q 2250 2553 1709 2553 
Q 1456 2553 1204 2497 
Q 953 2441 691 2322 
L 691 4666 
z
" transform="scale(0.015625)"/>
       </defs>
       <use xlink:href="#DejaVuSans-30"/>
       <use xlink:href="#DejaVuSans-2e" x="63.623047"/>
       <use xlink:href="#DejaVuSans-30" x="95.410156"/>
       <use xlink:href="#DejaVuSans-32" x="159.033203"/>
       <use xlink:href="#DejaVuSans-35" x="222.65625"/>
      </g>
     </g>
    </g>
    <g id="ytick_3">
     <g id="line2d_9">
      <g>
       <use xlink:href="#m5a316f5d49" x="42.828125" y="176.139039" style="stroke: #000000; stroke-width: 0.8"/>
      </g>
     </g>
     <g id="text_10">
      <!-- 0.050 -->
      <g transform="translate(7.2 179.938258) scale(0.1 -0.1)">
       <use xlink:href="#DejaVuSans-30"/>
       <use xlink:href="#DejaVuSans-2e" x="63.623047"/>
       <use xlink:href="#DejaVuSans-30" x="95.410156"/>
       <use xlink:href="#DejaVuSans-35" x="159.033203"/>
       <use xlink:href="#DejaVuSans-30" x="222.65625"/>
      </g>
     </g>
    </g>
    <g id="ytick_4">
     <g id="line2d_10">
      <g>
       <use xlink:href="#m5a316f5d49" x="42.828125" y="151.409562" style="stroke: #000000; stroke-width: 0.8"/>
      </g>
     </g>
     <g id="text_11">
      <!-- 0.075 -->
      <g transform="translate(7.2 155.20878) scale(0.1 -0.1)">
       <defs>
        <path id="DejaVuSans-37" d="M 525 4666 
L 3525 4666 
L 3525 4397 
L 1831 0 
L 1172 0 
L 2766 4134 
L 525 4134 
L 525 4666 
z
" transform="scale(0.015625)"/>
       </defs>
       <use xlink:href="#DejaVuSans-30"/>
       <use xlink:href="#DejaVuSans-2e" x="63.623047"/>
       <use xlink:href="#DejaVuSans-30" x="95.410156"/>
       <use xlink:href="#DejaVuSans-37" x="159.033203"/>
       <use xlink:href="#DejaVuSans-35" x="222.65625"/>
      </g>
     </g>
    </g>
    <g id="ytick_5">
     <g id="line2d_11">
      <g>
       <use xlink:href="#m5a316f5d49" x="42.828125" y="126.680084" style="stroke: #000000; stroke-width: 0.8"/>
      </g>
     </g>
     <g id="text_12">
      <!-- 0.100 -->
      <g transform="translate(7.2 130.479303) scale(0.1 -0.1)">
       <use xlink:href="#DejaVuSans-30"/>
       <use xlink:href="#DejaVuSans-2e" x="63.623047"/>
       <use xlink:href="#DejaVuSans-31" x="95.410156"/>
       <use xlink:href="#DejaVuSans-30" x="159.033203"/>
       <use xlink:href="#DejaVuSans-30" x="222.65625"/>
      </g>
     </g>
    </g>
    <g id="ytick_6">
     <g id="line2d_12">
      <g>
       <use xlink:href="#m5a316f5d49" x="42.828125" y="101.950606" style="stroke: #000000; stroke-width: 0.8"/>
      </g>
     </g>
     <g id="text_13">
      <!-- 0.125 -->
      <g transform="translate(7.2 105.749825) scale(0.1 -0.1)">
       <use xlink:href="#DejaVuSans-30"/>
       <use xlink:href="#DejaVuSans-2e" x="63.623047"/>
       <use xlink:href="#DejaVuSans-31" x="95.410156"/>
       <use xlink:href="#DejaVuSans-32" x="159.033203"/>
       <use xlink:href="#DejaVuSans-35" x="222.65625"/>
      </g>
     </g>
    </g>
    <g id="ytick_7">
     <g id="line2d_13">
      <g>
       <use xlink:href="#m5a316f5d49" x="42.828125" y="77.221128" style="stroke: #000000; stroke-width: 0.8"/>
      </g>
     </g>
     <g id="text_14">
      <!-- 0.150 -->
      <g transform="translate(7.2 81.020347) scale(0.1 -0.1)">
       <use xlink:href="#DejaVuSans-30"/>
       <use xlink:href="#DejaVuSans-2e" x="63.623047"/>
       <use xlink:href="#DejaVuSans-31" x="95.410156"/>
       <use xlink:href="#DejaVuSans-35" x="159.033203"/>
       <use xlink:href="#DejaVuSans-30" x="222.65625"/>
      </g>
     </g>
    </g>
    <g id="ytick_8">
     <g id="line2d_14">
      <g>
       <use xlink:href="#m5a316f5d49" x="42.828125" y="52.491651" style="stroke: #000000; stroke-width: 0.8"/>
      </g>
     </g>
     <g id="text_15">
      <!-- 0.175 -->
      <g transform="translate(7.2 56.29087) scale(0.1 -0.1)">
       <use xlink:href="#DejaVuSans-30"/>
       <use xlink:href="#DejaVuSans-2e" x="63.623047"/>
       <use xlink:href="#DejaVuSans-31" x="95.410156"/>
       <use xlink:href="#DejaVuSans-37" x="159.033203"/>
       <use xlink:href="#DejaVuSans-35" x="222.65625"/>
      </g>
     </g>
    </g>
    <g id="ytick_9">
     <g id="line2d_15">
      <g>
       <use xlink:href="#m5a316f5d49" x="42.828125" y="27.762173" style="stroke: #000000; stroke-width: 0.8"/>
      </g>
     </g>
     <g id="text_16">
      <!-- 0.200 -->
      <g transform="translate(7.2 31.561392) scale(0.1 -0.1)">
       <use xlink:href="#DejaVuSans-30"/>
       <use xlink:href="#DejaVuSans-2e" x="63.623047"/>
       <use xlink:href="#DejaVuSans-32" x="95.410156"/>
       <use xlink:href="#DejaVuSans-30" x="159.033203"/>
       <use xlink:href="#DejaVuSans-30" x="222.65625"/>
      </g>
     </g>
    </g>
   </g>
   <g id="line2d_16">
    <path d="M 63.119034 225.597995 
L 63.344687 225.364448 
L 70.202306 217.874597 
L 73.184705 215.028558 
L 74.675904 213.88361 
L 75.944478 213.131543 
L 77.21305 212.625846 
L 78.481623 212.401897 
L 80.510715 212.668975 
L 82.539806 213.6955 
L 84.568897 215.306383 
L 88.627079 219.051844 
L 90.65617 220.605551 
L 92.68526 221.768013 
L 95.311565 222.732897 
L 97.679504 223.251834 
L 100.881187 223.667207 
L 103.812658 224.023074 
L 104.487773 224.614683 
L 105.478447 225.118097 
L 106.469117 225.369625 
L 108.4833 225.551137 
L 113.184246 225.597172 
L 144.358758 225.514243 
L 144.714869 225.218815 
L 145.584809 224.84266 
L 146.836961 224.671237 
L 149.853514 224.620516 
L 184.902471 224.676409 
L 185.357442 225.050036 
L 186.195081 225.388998 
L 187.163765 225.529895 
L 190.061991 225.595726 
L 225.468197 225.565677 
L 226.25146 225.002612 
L 227.255633 224.714916 
L 228.795363 224.590826 
L 234.216685 224.552147 
L 266.087896 224.601072 
L 266.573418 224.996714 
L 267.099299 225.250338 
L 268.136756 225.480877 
L 270.235959 225.585413 
L 281.261478 225.597999 
L 306.695443 225.506189 
L 307.077214 225.182335 
L 307.773042 224.828955 
L 308.468854 224.647732 
L 310.110803 224.494259 
L 314.866036 224.447001 
L 347.217026 224.476922 
L 347.769626 224.936825 
L 348.677324 225.321677 
L 350.113626 225.529199 
L 353.48242 225.595348 
L 387.790268 225.568272 
L 388.465537 225.026625 
L 389.366052 224.662425 
L 390.716808 224.454808 
L 393.814317 224.365425 
L 415.246342 224.350227 
L 428.441409 224.45775 
L 428.707275 224.70061 
L 429.740707 225.244496 
L 430.774139 225.460213 
L 432.928871 225.578755 
L 441.971788 225.597988 
L 468.937216 225.597995 
L 468.937216 225.597995 
" clip-path="url(#p88111cf645)" style="fill: none; stroke: #f77189; stroke-opacity: 0.2; stroke-width: 5; stroke-linecap: square"/>
   </g>
   <g id="line2d_17">
    <path d="M 63.119034 225.331708 
L 63.39911 225.235506 
L 66.701611 223.732608 
L 70.202306 222.699251 
L 73.184705 222.176471 
L 75.944478 221.999743 
L 78.481623 222.101749 
L 80.510715 222.424459 
L 90.65617 224.842931 
L 94.127595 225.204524 
L 98.746731 225.426322 
L 107.140513 225.556742 
L 131.21861 225.593934 
L 407.129979 225.593345 
L 452.889669 225.483101 
L 468.937216 225.367324 
L 468.937216 225.367324 
" clip-path="url(#p88111cf645)" style="fill: none; stroke: #f77189; stroke-opacity: 0.8; stroke-width: 2; stroke-linecap: square"/>
   </g>
   <g id="line2d_18">
    <path d="M 63.119034 225.597995 
L 63.39911 225.554272 
L 63.830112 225.302554 
L 64.261114 224.831764 
L 64.692117 224.148602 
L 65.696864 221.762991 
L 66.701611 218.329399 
L 67.706359 213.904972 
L 68.711106 208.538514 
L 70.202306 198.930004 
L 71.693506 187.48843 
L 73.184705 174.394741 
L 75.944478 146.754585 
L 80.510715 97.901645 
L 82.539806 78.5703 
L 84.568897 62.70066 
L 86.597988 51.142434 
L 88.627079 44.044743 
L 90.65617 40.895013 
L 92.68526 40.798125 
L 94.127595 42.06846 
L 95.311565 43.730521 
L 96.495534 45.79872 
L 98.746731 50.525937 
L 100.881187 55.641388 
L 104.047923 63.969237 
L 104.98311 67.186903 
L 106.469117 73.142542 
L 114.490797 106.685933 
L 117.014977 116.564303 
L 121.073159 131.576499 
L 125.131341 145.448197 
L 129.189519 158.106577 
L 133.247701 169.497838 
L 135.276792 174.704045 
L 137.305882 179.580577 
L 139.334973 184.128002 
L 141.364064 188.349161 
L 144.634741 194.400641 
L 145.294832 195.165343 
L 146.355874 196.023204 
L 148.312948 197.203149 
L 151.390782 198.754826 
L 154.950484 200.299882 
L 159.008666 201.787143 
L 163.066847 203.017711 
L 167.125029 204.033116 
L 171.183211 204.867638 
L 177.270484 205.84296 
L 184.169388 206.637797 
L 185.100067 206.757216 
L 185.614817 207.034053 
L 186.517978 207.80562 
L 191.55414 212.602929 
L 194.043775 214.570002 
L 196.808402 216.437384 
L 199.721319 218.087562 
L 203.779501 219.92936 
L 207.837683 221.338029 
L 211.895865 222.407348 
L 215.954046 223.214949 
L 220.012228 223.821859 
L 225.607941 224.399959 
L 225.91672 224.326447 
L 226.586184 223.955996 
L 227.768882 222.998192 
L 231.481084 219.878943 
L 234.216685 217.954447 
L 235.874409 216.935328 
L 239.93259 214.82338 
L 243.985958 213.155488 
L 246.653505 212.248495 
L 250.711687 211.096828 
L 254.769869 210.173936 
L 258.828051 209.434127 
L 265.321135 208.53665 
L 266.393347 208.491114 
L 267.099299 208.841714 
L 268.136756 209.672287 
L 272.427644 213.437164 
L 275.169298 215.461676 
L 277.622205 217.009438 
L 279.232387 217.904137 
L 283.290569 219.788293 
L 287.348751 221.230616 
L 291.406932 222.326095 
L 295.465114 223.153452 
L 299.523296 223.77579 
L 305.610569 224.428438 
L 306.975041 224.465208 
L 307.425128 224.25694 
L 308.468854 223.437351 
L 313.658121 218.688522 
L 316.076119 216.871658 
L 317.910059 215.65936 
L 319.93915 214.460826 
L 323.997348 212.446012 
L 327.300224 211.115436 
L 331.551048 209.725393 
L 335.388877 208.720137 
L 339.447059 207.863485 
L 345.534332 206.888923 
L 347.60776 206.724842 
L 348.223459 207.041104 
L 349.585021 208.211253 
L 354.076756 212.455344 
L 356.454628 214.358354 
L 358.834729 216.012746 
L 361.582931 217.645191 
L 363.612022 218.680573 
L 367.670204 220.38429 
L 371.728386 221.684136 
L 375.786568 222.669041 
L 379.84475 223.411842 
L 383.902931 223.969429 
L 388.085888 224.340245 
L 388.465537 224.187468 
L 389.366052 223.516141 
L 391.329133 221.543797 
L 393.814317 219.088534 
L 396.417155 216.847831 
L 399.044607 214.912107 
L 401.7294 213.218284 
L 405.100888 211.429891 
L 409.159069 209.680814 
L 413.217251 208.284004 
L 417.275433 207.167948 
L 421.333615 206.277283 
L 425.391797 205.569834 
L 428.707275 205.176445 
L 429.223991 205.407124 
L 430.257423 206.243842 
L 437.268524 213.033261 
L 439.795135 214.967854 
L 441.971788 216.414624 
L 444.773306 218.0108 
L 448.831487 219.870474 
L 452.889669 221.29311 
L 456.947851 222.373345 
L 461.006033 223.189348 
L 465.064215 223.802662 
L 468.937216 224.24362 
L 468.937216 224.24362 
" clip-path="url(#p88111cf645)" style="fill: none; stroke: #50b131; stroke-opacity: 0.2; stroke-width: 5; stroke-linecap: square"/>
   </g>
   <g id="line2d_19">
    <path d="M 63.119034 224.940772 
L 63.344687 224.618429 
L 63.39911 224.505131 
L 63.830112 223.285917 
L 64.692117 219.756336 
L 66.701611 211.036593 
L 68.711106 203.043823 
L 71.693506 189.447739 
L 73.184705 182.089444 
L 74.675904 173.938627 
L 75.944478 166.020929 
L 78.481623 147.868927 
L 80.510715 133.308645 
L 82.539806 120.837172 
L 84.568897 110.525597 
L 88.627079 92.731628 
L 92.68526 76.029253 
L 95.311565 66.201162 
L 96.495534 62.348693 
L 97.679504 59.112102 
L 98.746731 56.911256 
L 99.813961 55.588319 
L 100.881187 55.370507 
L 101.813116 56.270733 
L 102.97803 58.905581 
L 103.974614 62.250083 
L 104.98311 66.251971 
L 107.140513 75.689262 
L 110.504039 91.559731 
L 113.849678 107.41972 
L 115.773039 115.735406 
L 117.014977 120.639856 
L 119.044068 127.822397 
L 121.073159 134.034763 
L 123.10225 139.427318 
L 127.160432 148.741044 
L 129.189519 153.50783 
L 131.21861 159.307744 
L 133.247701 166.614988 
L 135.276792 174.432842 
L 137.305882 181.064382 
L 139.334973 185.928061 
L 141.364064 189.377006 
L 144.172393 192.685539 
L 145.584809 193.94236 
L 147.318048 195.233199 
L 149.34059 196.473766 
L 151.902195 197.736959 
L 152.921393 198.164718 
L 156.979575 199.579699 
L 171.183211 203.737923 
L 175.241393 204.721221 
L 183.357756 206.460169 
L 185.614817 207.228135 
L 187.639689 208.170685 
L 189.564734 209.353285 
L 191.55414 210.902012 
L 193.54528 212.749813 
L 197.692228 216.881653 
L 199.721319 218.608197 
L 201.75041 219.971795 
L 203.779501 220.982198 
L 205.808592 221.705325 
L 207.837683 222.215788 
L 211.895865 222.824118 
L 215.954046 223.092624 
L 220.012228 223.107987 
L 224.07041 222.821919 
L 226.586184 222.421446 
L 228.795363 221.867142 
L 230.935001 221.098198 
L 233.121052 220.037644 
L 235.321839 218.686962 
L 237.9035 216.824436 
L 242.973812 213.061896 
L 245.549899 211.484701 
L 246.653505 210.915661 
L 248.682596 210.0431 
L 250.711687 209.388476 
L 252.740778 208.937435 
L 254.769869 208.676273 
L 256.79896 208.5962 
L 258.828051 208.694759 
L 260.857142 208.975134 
L 262.886232 209.444639 
L 266.213275 210.646759 
L 268.136756 211.594793 
L 270.235959 212.83554 
L 272.975662 214.733764 
L 279.232387 219.442961 
L 281.261478 220.735108 
L 283.290569 221.782512 
L 285.31966 222.571991 
L 287.348751 223.131388 
L 289.377842 223.508081 
L 293.436023 223.890996 
L 297.494205 223.949076 
L 301.552387 223.667165 
L 303.581478 223.306054 
L 306.589478 222.28744 
L 308.12094 221.47102 
L 309.563482 220.503999 
L 311.854274 218.650066 
L 317.298741 213.991623 
L 317.910059 213.534813 
L 319.93915 212.164073 
L 321.968241 211.008695 
L 325.64877 209.363932 
L 329.615926 208.050692 
L 332.764305 207.251146 
L 335.388877 206.746949 
L 337.417968 206.48584 
L 339.447059 206.376415 
L 341.47615 206.471047 
L 343.505241 206.837278 
L 346.345956 207.949232 
L 347.769626 208.811556 
L 349.585021 210.196249 
L 352.293716 212.638189 
L 354.671093 214.72184 
L 356.454628 215.997565 
L 358.239557 216.965865 
L 361.582931 218.434749 
L 363.612022 219.668347 
L 365.641113 221.094877 
L 367.670204 222.236707 
L 369.699295 223.033169 
L 371.728386 223.572326 
L 373.757477 223.842013 
L 377.815659 223.959066 
L 381.87384 223.798345 
L 383.902931 223.54706 
L 386.743677 222.757157 
L 388.37061 221.934309 
L 389.816294 220.935261 
L 391.941458 219.115988 
L 395.763961 215.735831 
L 397.728435 214.288044 
L 399.044607 213.450727 
L 401.7294 212.014219 
L 405.100888 210.569205 
L 409.159069 209.148888 
L 413.217251 207.981396 
L 417.275433 207.07549 
L 421.333615 206.501643 
L 423.362706 206.388194 
L 425.391797 206.441071 
L 428.469212 206.97473 
L 429.740707 207.405593 
L 431.290855 208.130931 
L 432.928871 209.150486 
L 434.742594 210.566813 
L 437.268524 212.899352 
L 441.199361 216.592443 
L 442.744215 217.831568 
L 444.773306 219.18357 
L 446.802396 220.226088 
L 448.831487 221.003033 
L 450.860578 221.572006 
L 454.91876 222.288856 
L 458.976942 222.676336 
L 465.064215 222.966285 
L 468.937216 223.062062 
L 468.937216 223.062062 
" clip-path="url(#p88111cf645)" style="fill: none; stroke: #50b131; stroke-opacity: 0.8; stroke-width: 2; stroke-linecap: square"/>
   </g>
   <g id="line2d_20">
    <path d="M 63.119034 225.597995 
L 66.701611 225.489648 
L 68.711106 225.197494 
L 70.202306 224.801079 
L 71.693506 224.213027 
L 73.184705 223.402272 
L 74.675904 222.341904 
L 75.944478 221.226399 
L 77.21305 219.906675 
L 78.481623 218.379088 
L 80.510715 215.510133 
L 82.539806 212.151853 
L 84.568897 208.37922 
L 88.627079 200.003458 
L 96.495534 183.185792 
L 100.881187 174.457775 
L 104.487773 167.804147 
L 107.140513 163.28468 
L 109.829366 159.102847 
L 112.518814 155.320207 
L 115.13192 152.012939 
L 117.014977 149.845085 
L 119.044068 147.701276 
L 121.073159 145.749586 
L 123.10225 143.982225 
L 125.131341 142.39097 
L 127.160432 140.967382 
L 129.189519 139.702905 
L 131.21861 138.591394 
L 133.247701 137.622657 
L 135.276792 136.786957 
L 139.334973 135.479726 
L 143.393155 134.601857 
L 147.318048 134.068502 
L 152.921393 133.519278 
L 159.008666 133.111461 
L 167.125029 132.797261 
L 177.270484 132.651782 
L 188.115621 132.720393 
L 192.549482 132.991615 
L 197.692228 133.529836 
L 203.779501 134.388982 
L 211.895865 135.772591 
L 225.492935 138.388118 
L 230.392866 139.264326 
L 235.321839 139.912363 
L 239.93259 140.354201 
L 246.653505 140.789933 
L 254.769869 141.087992 
L 266.573418 141.242799 
L 271.331732 141.373819 
L 276.267842 141.739507 
L 281.261478 142.290229 
L 289.377842 143.443501 
L 299.523296 145.13862 
L 311.854274 147.228657 
L 316.687437 147.731932 
L 321.968241 148.064522 
L 329.615926 148.260604 
L 337.417968 148.225687 
L 355.265429 148.003934 
L 360.666874 148.37447 
L 365.641113 148.889044 
L 373.757477 149.961916 
L 386.337865 151.927736 
L 392.553783 152.8507 
L 397.070349 153.257795 
L 401.7294 153.479619 
L 407.129979 153.547898 
L 415.246342 153.382066 
L 425.391797 152.88725 
L 433.533456 152.490804 
L 437.900014 152.550241 
L 442.744215 152.82291 
L 448.831487 153.388776 
L 456.947851 154.39346 
L 468.937216 156.149836 
L 468.937216 156.149836 
" clip-path="url(#p88111cf645)" style="fill: none; stroke: #3ba3ec; stroke-opacity: 0.2; stroke-width: 5; stroke-linecap: square"/>
   </g>
   <g id="line2d_21">
    <path d="M 63.119034 213.879233 
L 65.696864 213.85406 
L 67.706359 213.585913 
L 70.202306 212.969658 
L 73.184705 211.792941 
L 74.675904 211.012369 
L 75.944478 210.214299 
L 77.21305 209.279882 
L 78.481623 208.204874 
L 80.510715 206.185028 
L 82.539806 203.795711 
L 84.568897 201.079594 
L 86.597988 198.094923 
L 88.627079 194.867338 
L 92.68526 187.814468 
L 97.679504 178.49859 
L 104.487773 165.76465 
L 107.140513 161.275199 
L 109.829366 157.189707 
L 112.518814 153.574182 
L 115.13192 150.500003 
L 117.014977 148.52876 
L 119.044068 146.605068 
L 121.073159 144.863908 
L 125.131341 141.839144 
L 129.189519 139.301667 
L 131.21861 138.208415 
L 133.247701 137.248102 
L 135.276792 136.435372 
L 137.305882 135.779726 
L 141.364064 134.849328 
L 146.836961 134.014164 
L 152.413609 133.400615 
L 159.008666 132.90049 
L 169.15412 132.379168 
L 177.270484 132.234408 
L 187.639689 132.308446 
L 192.549482 132.535021 
L 196.808402 132.944201 
L 201.75041 133.647184 
L 209.866774 135.053579 
L 233.668868 139.355608 
L 237.9035 139.913661 
L 242.973812 140.365381 
L 248.682596 140.617632 
L 270.783853 141.220193 
L 276.267842 141.713361 
L 281.261478 142.357274 
L 289.377842 143.682747 
L 309.563482 147.100631 
L 314.260987 147.625608 
L 317.910059 147.871809 
L 323.997348 148.043536 
L 331.551048 147.966528 
L 351.69938 147.524802 
L 356.454628 147.669813 
L 360.666874 148.016466 
L 365.641113 148.595266 
L 373.757477 149.820853 
L 388.915779 152.14864 
L 393.166108 152.55177 
L 399.044607 152.859421 
L 405.100888 152.934934 
L 413.217251 152.74515 
L 423.362706 152.253861 
L 432.928871 151.819115 
L 437.900014 151.826411 
L 442.744215 152.067121 
L 448.831487 152.624319 
L 458.976942 153.870093 
L 468.937216 155.18084 
L 468.937216 155.18084 
" clip-path="url(#p88111cf645)" style="fill: none; stroke: #3ba3ec; stroke-opacity: 0.8; stroke-width: 2; stroke-linecap: square"/>
   </g>
   <g id="patch_3">
    <path d="M 42.828125 244.078125 
L 42.828125 22.318125 
" style="fill: none; stroke: #000000; stroke-width: 0.8; stroke-linejoin: miter; stroke-linecap: square"/>
   </g>
   <g id="patch_4">
    <path d="M 42.828125 244.078125 
L 489.228125 244.078125 
" style="fill: none; stroke: #000000; stroke-width: 0.8; stroke-linejoin: miter; stroke-linecap: square"/>
   </g>
   <g id="text_17">
    <!-- Negative feedback model -->
    <g transform="translate(189.037812 16.318125) scale(0.12 -0.12)">
     <defs>
      <path id="DejaVuSans-4e" d="M 628 4666 
L 1478 4666 
L 3547 763 
L 3547 4666 
L 4159 4666 
L 4159 0 
L 3309 0 
L 1241 3903 
L 1241 0 
L 628 0 
L 628 4666 
z
" transform="scale(0.015625)"/>
      <path id="DejaVuSans-67" d="M 2906 1791 
Q 2906 2416 2648 2759 
Q 2391 3103 1925 3103 
Q 1463 3103 1205 2759 
Q 947 2416 947 1791 
Q 947 1169 1205 825 
Q 1463 481 1925 481 
Q 2391 481 2648 825 
Q 2906 1169 2906 1791 
z
M 3481 434 
Q 3481 -459 3084 -895 
Q 2688 -1331 1869 -1331 
Q 1566 -1331 1297 -1286 
Q 1028 -1241 775 -1147 
L 775 -588 
Q 1028 -725 1275 -790 
Q 1522 -856 1778 -856 
Q 2344 -856 2625 -561 
Q 2906 -266 2906 331 
L 2906 616 
Q 2728 306 2450 153 
Q 2172 0 1784 0 
Q 1141 0 747 490 
Q 353 981 353 1791 
Q 353 2603 747 3093 
Q 1141 3584 1784 3584 
Q 2172 3584 2450 3431 
Q 2728 3278 2906 2969 
L 2906 3500 
L 3481 3500 
L 3481 434 
z
" transform="scale(0.015625)"/>
      <path id="DejaVuSans-61" d="M 2194 1759 
Q 1497 1759 1228 1600 
Q 959 1441 959 1056 
Q 959 750 1161 570 
Q 1363 391 1709 391 
Q 2188 391 2477 730 
Q 2766 1069 2766 1631 
L 2766 1759 
L 2194 1759 
z
M 3341 1997 
L 3341 0 
L 2766 0 
L 2766 531 
Q 2569 213 2275 61 
Q 1981 -91 1556 -91 
Q 1019 -91 701 211 
Q 384 513 384 1019 
Q 384 1609 779 1909 
Q 1175 2209 1959 2209 
L 2766 2209 
L 2766 2266 
Q 2766 2663 2505 2880 
Q 2244 3097 1772 3097 
Q 1472 3097 1187 3025 
Q 903 2953 641 2809 
L 641 3341 
Q 956 3463 1253 3523 
Q 1550 3584 1831 3584 
Q 2591 3584 2966 3190 
Q 3341 2797 3341 1997 
z
" transform="scale(0.015625)"/>
      <path id="DejaVuSans-74" d="M 1172 4494 
L 1172 3500 
L 2356 3500 
L 2356 3053 
L 1172 3053 
L 1172 1153 
Q 1172 725 1289 603 
Q 1406 481 1766 481 
L 2356 481 
L 2356 0 
L 1766 0 
Q 1100 0 847 248 
Q 594 497 594 1153 
L 594 3053 
L 172 3053 
L 172 3500 
L 594 3500 
L 594 4494 
L 1172 4494 
z
" transform="scale(0.015625)"/>
      <path id="DejaVuSans-76" d="M 191 3500 
L 800 3500 
L 1894 563 
L 2988 3500 
L 3597 3500 
L 2284 0 
L 1503 0 
L 191 3500 
z
" transform="scale(0.015625)"/>
      <path id="DejaVuSans-66" d="M 2375 4863 
L 2375 4384 
L 1825 4384 
Q 1516 4384 1395 4259 
Q 1275 4134 1275 3809 
L 1275 3500 
L 2222 3500 
L 2222 3053 
L 1275 3053 
L 1275 0 
L 697 0 
L 697 3053 
L 147 3053 
L 147 3500 
L 697 3500 
L 697 3744 
Q 697 4328 969 4595 
Q 1241 4863 1831 4863 
L 2375 4863 
z
" transform="scale(0.015625)"/>
      <path id="DejaVuSans-64" d="M 2906 2969 
L 2906 4863 
L 3481 4863 
L 3481 0 
L 2906 0 
L 2906 525 
Q 2725 213 2448 61 
Q 2172 -91 1784 -91 
Q 1150 -91 751 415 
Q 353 922 353 1747 
Q 353 2572 751 3078 
Q 1150 3584 1784 3584 
Q 2172 3584 2448 3432 
Q 2725 3281 2906 2969 
z
M 947 1747 
Q 947 1113 1208 752 
Q 1469 391 1925 391 
Q 2381 391 2643 752 
Q 2906 1113 2906 1747 
Q 2906 2381 2643 2742 
Q 2381 3103 1925 3103 
Q 1469 3103 1208 2742 
Q 947 2381 947 1747 
z
" transform="scale(0.015625)"/>
      <path id="DejaVuSans-62" d="M 3116 1747 
Q 3116 2381 2855 2742 
Q 2594 3103 2138 3103 
Q 1681 3103 1420 2742 
Q 1159 2381 1159 1747 
Q 1159 1113 1420 752 
Q 1681 391 2138 391 
Q 2594 391 2855 752 
Q 3116 1113 3116 1747 
z
M 1159 2969 
Q 1341 3281 1617 3432 
Q 1894 3584 2278 3584 
Q 2916 3584 3314 3078 
Q 3713 2572 3713 1747 
Q 3713 922 3314 415 
Q 2916 -91 2278 -91 
Q 1894 -91 1617 61 
Q 1341 213 1159 525 
L 1159 0 
L 581 0 
L 581 4863 
L 1159 4863 
L 1159 2969 
z
" transform="scale(0.015625)"/>
      <path id="DejaVuSans-63" d="M 3122 3366 
L 3122 2828 
Q 2878 2963 2633 3030 
Q 2388 3097 2138 3097 
Q 1578 3097 1268 2742 
Q 959 2388 959 1747 
Q 959 1106 1268 751 
Q 1578 397 2138 397 
Q 2388 397 2633 464 
Q 2878 531 3122 666 
L 3122 134 
Q 2881 22 2623 -34 
Q 2366 -91 2075 -91 
Q 1284 -91 818 406 
Q 353 903 353 1747 
Q 353 2603 823 3093 
Q 1294 3584 2113 3584 
Q 2378 3584 2631 3529 
Q 2884 3475 3122 3366 
z
" transform="scale(0.015625)"/>
      <path id="DejaVuSans-6b" d="M 581 4863 
L 1159 4863 
L 1159 1991 
L 2875 3500 
L 3609 3500 
L 1753 1863 
L 3688 0 
L 2938 0 
L 1159 1709 
L 1159 0 
L 581 0 
L 581 4863 
z
" transform="scale(0.015625)"/>
      <path id="DejaVuSans-6f" d="M 1959 3097 
Q 1497 3097 1228 2736 
Q 959 2375 959 1747 
Q 959 1119 1226 758 
Q 1494 397 1959 397 
Q 2419 397 2687 759 
Q 2956 1122 2956 1747 
Q 2956 2369 2687 2733 
Q 2419 3097 1959 3097 
z
M 1959 3584 
Q 2709 3584 3137 3096 
Q 3566 2609 3566 1747 
Q 3566 888 3137 398 
Q 2709 -91 1959 -91 
Q 1206 -91 779 398 
Q 353 888 353 1747 
Q 353 2609 779 3096 
Q 1206 3584 1959 3584 
z
" transform="scale(0.015625)"/>
      <path id="DejaVuSans-6c" d="M 603 4863 
L 1178 4863 
L 1178 0 
L 603 0 
L 603 4863 
z
" transform="scale(0.015625)"/>
     </defs>
     <use xlink:href="#DejaVuSans-4e"/>
     <use xlink:href="#DejaVuSans-65" x="74.804688"/>
     <use xlink:href="#DejaVuSans-67" x="136.328125"/>
     <use xlink:href="#DejaVuSans-61" x="199.804688"/>
     <use xlink:href="#DejaVuSans-74" x="261.083984"/>
     <use xlink:href="#DejaVuSans-69" x="300.292969"/>
     <use xlink:href="#DejaVuSans-76" x="328.076172"/>
     <use xlink:href="#DejaVuSans-65" x="387.255859"/>
     <use xlink:href="#DejaVuSans-20" x="448.779297"/>
     <use xlink:href="#DejaVuSans-66" x="480.566406"/>
     <use xlink:href="#DejaVuSans-65" x="515.771484"/>
     <use xlink:href="#DejaVuSans-65" x="577.294922"/>
     <use xlink:href="#DejaVuSans-64" x="638.818359"/>
     <use xlink:href="#DejaVuSans-62" x="702.294922"/>
     <use xlink:href="#DejaVuSans-61" x="765.771484"/>
     <use xlink:href="#DejaVuSans-63" x="827.050781"/>
     <use xlink:href="#DejaVuSans-6b" x="882.03125"/>
     <use xlink:href="#DejaVuSans-20" x="939.941406"/>
     <use xlink:href="#DejaVuSans-6d" x="971.728516"/>
     <use xlink:href="#DejaVuSans-6f" x="1069.140625"/>
     <use xlink:href="#DejaVuSans-64" x="1130.322266"/>
     <use xlink:href="#DejaVuSans-65" x="1193.798828"/>
     <use xlink:href="#DejaVuSans-6c" x="1255.322266"/>
    </g>
   </g>
   <g id="legend_1">
    <g id="text_18">
     <!-- Epochs: 180000 -->
     <g transform="translate(551.378125 85.135937) scale(0.12 -0.12)">
      <defs>
       <path id="DejaVuSans-45" d="M 628 4666 
L 3578 4666 
L 3578 4134 
L 1259 4134 
L 1259 2753 
L 3481 2753 
L 3481 2222 
L 1259 2222 
L 1259 531 
L 3634 531 
L 3634 0 
L 628 0 
L 628 4666 
z
" transform="scale(0.015625)"/>
       <path id="DejaVuSans-70" d="M 1159 525 
L 1159 -1331 
L 581 -1331 
L 581 3500 
L 1159 3500 
L 1159 2969 
Q 1341 3281 1617 3432 
Q 1894 3584 2278 3584 
Q 2916 3584 3314 3078 
Q 3713 2572 3713 1747 
Q 3713 922 3314 415 
Q 2916 -91 2278 -91 
Q 1894 -91 1617 61 
Q 1341 213 1159 525 
z
M 3116 1747 
Q 3116 2381 2855 2742 
Q 2594 3103 2138 3103 
Q 1681 3103 1420 2742 
Q 1159 2381 1159 1747 
Q 1159 1113 1420 752 
Q 1681 391 2138 391 
Q 2594 391 2855 752 
Q 3116 1113 3116 1747 
z
" transform="scale(0.015625)"/>
       <path id="DejaVuSans-68" d="M 3513 2113 
L 3513 0 
L 2938 0 
L 2938 2094 
Q 2938 2591 2744 2837 
Q 2550 3084 2163 3084 
Q 1697 3084 1428 2787 
Q 1159 2491 1159 1978 
L 1159 0 
L 581 0 
L 581 4863 
L 1159 4863 
L 1159 2956 
Q 1366 3272 1645 3428 
Q 1925 3584 2291 3584 
Q 2894 3584 3203 3211 
Q 3513 2838 3513 2113 
z
" transform="scale(0.015625)"/>
       <path id="DejaVuSans-3a" d="M 750 794 
L 1409 794 
L 1409 0 
L 750 0 
L 750 794 
z
M 750 3309 
L 1409 3309 
L 1409 2516 
L 750 2516 
L 750 3309 
z
" transform="scale(0.015625)"/>
      </defs>
      <use xlink:href="#DejaVuSans-45"/>
      <use xlink:href="#DejaVuSans-70" x="63.183594"/>
      <use xlink:href="#DejaVuSans-6f" x="126.660156"/>
      <use xlink:href="#DejaVuSans-63" x="187.841797"/>
      <use xlink:href="#DejaVuSans-68" x="242.822266"/>
      <use xlink:href="#DejaVuSans-73" x="306.201172"/>
      <use xlink:href="#DejaVuSans-3a" x="358.300781"/>
      <use xlink:href="#DejaVuSans-20" x="391.992188"/>
      <use xlink:href="#DejaVuSans-31" x="423.779297"/>
      <use xlink:href="#DejaVuSans-38" x="487.402344"/>
      <use xlink:href="#DejaVuSans-30" x="551.025391"/>
      <use xlink:href="#DejaVuSans-30" x="614.648438"/>
      <use xlink:href="#DejaVuSans-30" x="678.271484"/>
      <use xlink:href="#DejaVuSans-30" x="741.894531"/>
     </g>
    </g>
    <g id="line2d_22">
     <path d="M 540.631875 96.73 
L 550.631875 96.73 
L 560.631875 96.73 
" style="fill: none; stroke: #f77189; stroke-opacity: 0.2; stroke-width: 5; stroke-linecap: square"/>
    </g>
    <g id="text_19">
     <!-- g1p Ground truth -->
     <g transform="translate(568.631875 100.23) scale(0.1 -0.1)">
      <defs>
       <path id="DejaVuSans-47" d="M 3809 666 
L 3809 1919 
L 2778 1919 
L 2778 2438 
L 4434 2438 
L 4434 434 
Q 4069 175 3628 42 
Q 3188 -91 2688 -91 
Q 1594 -91 976 548 
Q 359 1188 359 2328 
Q 359 3472 976 4111 
Q 1594 4750 2688 4750 
Q 3144 4750 3555 4637 
Q 3966 4525 4313 4306 
L 4313 3634 
Q 3963 3931 3569 4081 
Q 3175 4231 2741 4231 
Q 1884 4231 1454 3753 
Q 1025 3275 1025 2328 
Q 1025 1384 1454 906 
Q 1884 428 2741 428 
Q 3075 428 3337 486 
Q 3600 544 3809 666 
z
" transform="scale(0.015625)"/>
       <path id="DejaVuSans-72" d="M 2631 2963 
Q 2534 3019 2420 3045 
Q 2306 3072 2169 3072 
Q 1681 3072 1420 2755 
Q 1159 2438 1159 1844 
L 1159 0 
L 581 0 
L 581 3500 
L 1159 3500 
L 1159 2956 
Q 1341 3275 1631 3429 
Q 1922 3584 2338 3584 
Q 2397 3584 2469 3576 
Q 2541 3569 2628 3553 
L 2631 2963 
z
" transform="scale(0.015625)"/>
       <path id="DejaVuSans-75" d="M 544 1381 
L 544 3500 
L 1119 3500 
L 1119 1403 
Q 1119 906 1312 657 
Q 1506 409 1894 409 
Q 2359 409 2629 706 
Q 2900 1003 2900 1516 
L 2900 3500 
L 3475 3500 
L 3475 0 
L 2900 0 
L 2900 538 
Q 2691 219 2414 64 
Q 2138 -91 1772 -91 
Q 1169 -91 856 284 
Q 544 659 544 1381 
z
M 1991 3584 
L 1991 3584 
z
" transform="scale(0.015625)"/>
       <path id="DejaVuSans-6e" d="M 3513 2113 
L 3513 0 
L 2938 0 
L 2938 2094 
Q 2938 2591 2744 2837 
Q 2550 3084 2163 3084 
Q 1697 3084 1428 2787 
Q 1159 2491 1159 1978 
L 1159 0 
L 581 0 
L 581 3500 
L 1159 3500 
L 1159 2956 
Q 1366 3272 1645 3428 
Q 1925 3584 2291 3584 
Q 2894 3584 3203 3211 
Q 3513 2838 3513 2113 
z
" transform="scale(0.015625)"/>
      </defs>
      <use xlink:href="#DejaVuSans-67"/>
      <use xlink:href="#DejaVuSans-31" x="63.476562"/>
      <use xlink:href="#DejaVuSans-70" x="127.099609"/>
      <use xlink:href="#DejaVuSans-20" x="190.576172"/>
      <use xlink:href="#DejaVuSans-47" x="222.363281"/>
      <use xlink:href="#DejaVuSans-72" x="299.853516"/>
      <use xlink:href="#DejaVuSans-6f" x="338.716797"/>
      <use xlink:href="#DejaVuSans-75" x="399.898438"/>
      <use xlink:href="#DejaVuSans-6e" x="463.277344"/>
      <use xlink:href="#DejaVuSans-64" x="526.65625"/>
      <use xlink:href="#DejaVuSans-20" x="590.132812"/>
      <use xlink:href="#DejaVuSans-74" x="621.919922"/>
      <use xlink:href="#DejaVuSans-72" x="661.128906"/>
      <use xlink:href="#DejaVuSans-75" x="702.242188"/>
      <use xlink:href="#DejaVuSans-74" x="765.621094"/>
      <use xlink:href="#DejaVuSans-68" x="804.830078"/>
     </g>
    </g>
    <g id="line2d_23">
     <path d="M 540.631875 111.408125 
L 550.631875 111.408125 
L 560.631875 111.408125 
" style="fill: none; stroke: #f77189; stroke-opacity: 0.8; stroke-width: 2; stroke-linecap: square"/>
    </g>
    <g id="text_20">
     <!-- g1p NN output -->
     <g transform="translate(568.631875 114.908125) scale(0.1 -0.1)">
      <use xlink:href="#DejaVuSans-67"/>
      <use xlink:href="#DejaVuSans-31" x="63.476562"/>
      <use xlink:href="#DejaVuSans-70" x="127.099609"/>
      <use xlink:href="#DejaVuSans-20" x="190.576172"/>
      <use xlink:href="#DejaVuSans-4e" x="222.363281"/>
      <use xlink:href="#DejaVuSans-4e" x="297.167969"/>
      <use xlink:href="#DejaVuSans-20" x="371.972656"/>
      <use xlink:href="#DejaVuSans-6f" x="403.759766"/>
      <use xlink:href="#DejaVuSans-75" x="464.941406"/>
      <use xlink:href="#DejaVuSans-74" x="528.320312"/>
      <use xlink:href="#DejaVuSans-70" x="567.529297"/>
      <use xlink:href="#DejaVuSans-75" x="631.005859"/>
      <use xlink:href="#DejaVuSans-74" x="694.384766"/>
     </g>
    </g>
    <g id="line2d_24">
     <path d="M 540.631875 126.08625 
L 550.631875 126.08625 
L 560.631875 126.08625 
" style="fill: none; stroke: #50b131; stroke-opacity: 0.2; stroke-width: 5; stroke-linecap: square"/>
    </g>
    <g id="text_21">
     <!-- g2p Ground truth -->
     <g transform="translate(568.631875 129.58625) scale(0.1 -0.1)">
      <use xlink:href="#DejaVuSans-67"/>
      <use xlink:href="#DejaVuSans-32" x="63.476562"/>
      <use xlink:href="#DejaVuSans-70" x="127.099609"/>
      <use xlink:href="#DejaVuSans-20" x="190.576172"/>
      <use xlink:href="#DejaVuSans-47" x="222.363281"/>
      <use xlink:href="#DejaVuSans-72" x="299.853516"/>
      <use xlink:href="#DejaVuSans-6f" x="338.716797"/>
      <use xlink:href="#DejaVuSans-75" x="399.898438"/>
      <use xlink:href="#DejaVuSans-6e" x="463.277344"/>
      <use xlink:href="#DejaVuSans-64" x="526.65625"/>
      <use xlink:href="#DejaVuSans-20" x="590.132812"/>
      <use xlink:href="#DejaVuSans-74" x="621.919922"/>
      <use xlink:href="#DejaVuSans-72" x="661.128906"/>
      <use xlink:href="#DejaVuSans-75" x="702.242188"/>
      <use xlink:href="#DejaVuSans-74" x="765.621094"/>
      <use xlink:href="#DejaVuSans-68" x="804.830078"/>
     </g>
    </g>
    <g id="line2d_25">
     <path d="M 540.631875 140.764375 
L 550.631875 140.764375 
L 560.631875 140.764375 
" style="fill: none; stroke: #50b131; stroke-opacity: 0.8; stroke-width: 2; stroke-linecap: square"/>
    </g>
    <g id="text_22">
     <!-- g2p NN output -->
     <g transform="translate(568.631875 144.264375) scale(0.1 -0.1)">
      <use xlink:href="#DejaVuSans-67"/>
      <use xlink:href="#DejaVuSans-32" x="63.476562"/>
      <use xlink:href="#DejaVuSans-70" x="127.099609"/>
      <use xlink:href="#DejaVuSans-20" x="190.576172"/>
      <use xlink:href="#DejaVuSans-4e" x="222.363281"/>
      <use xlink:href="#DejaVuSans-4e" x="297.167969"/>
      <use xlink:href="#DejaVuSans-20" x="371.972656"/>
      <use xlink:href="#DejaVuSans-6f" x="403.759766"/>
      <use xlink:href="#DejaVuSans-75" x="464.941406"/>
      <use xlink:href="#DejaVuSans-74" x="528.320312"/>
      <use xlink:href="#DejaVuSans-70" x="567.529297"/>
      <use xlink:href="#DejaVuSans-75" x="631.005859"/>
      <use xlink:href="#DejaVuSans-74" x="694.384766"/>
     </g>
    </g>
    <g id="line2d_26">
     <path d="M 540.631875 155.4425 
L 550.631875 155.4425 
L 560.631875 155.4425 
" style="fill: none; stroke: #3ba3ec; stroke-opacity: 0.2; stroke-width: 5; stroke-linecap: square"/>
    </g>
    <g id="text_23">
     <!-- Xact Ground truth -->
     <g transform="translate(568.631875 158.9425) scale(0.1 -0.1)">
      <defs>
       <path id="DejaVuSans-58" d="M 403 4666 
L 1081 4666 
L 2241 2931 
L 3406 4666 
L 4084 4666 
L 2584 2425 
L 4184 0 
L 3506 0 
L 2194 1984 
L 872 0 
L 191 0 
L 1856 2491 
L 403 4666 
z
" transform="scale(0.015625)"/>
      </defs>
      <use xlink:href="#DejaVuSans-58"/>
      <use xlink:href="#DejaVuSans-61" x="68.505859"/>
      <use xlink:href="#DejaVuSans-63" x="129.785156"/>
      <use xlink:href="#DejaVuSans-74" x="184.765625"/>
      <use xlink:href="#DejaVuSans-20" x="223.974609"/>
      <use xlink:href="#DejaVuSans-47" x="255.761719"/>
      <use xlink:href="#DejaVuSans-72" x="333.251953"/>
      <use xlink:href="#DejaVuSans-6f" x="372.115234"/>
      <use xlink:href="#DejaVuSans-75" x="433.296875"/>
      <use xlink:href="#DejaVuSans-6e" x="496.675781"/>
      <use xlink:href="#DejaVuSans-64" x="560.054688"/>
      <use xlink:href="#DejaVuSans-20" x="623.53125"/>
      <use xlink:href="#DejaVuSans-74" x="655.318359"/>
      <use xlink:href="#DejaVuSans-72" x="694.527344"/>
      <use xlink:href="#DejaVuSans-75" x="735.640625"/>
      <use xlink:href="#DejaVuSans-74" x="799.019531"/>
      <use xlink:href="#DejaVuSans-68" x="838.228516"/>
     </g>
    </g>
    <g id="line2d_27">
     <path d="M 540.631875 170.120625 
L 550.631875 170.120625 
L 560.631875 170.120625 
" style="fill: none; stroke: #3ba3ec; stroke-opacity: 0.8; stroke-width: 2; stroke-linecap: square"/>
    </g>
    <g id="text_24">
     <!-- Xact NN output -->
     <g transform="translate(568.631875 173.620625) scale(0.1 -0.1)">
      <use xlink:href="#DejaVuSans-58"/>
      <use xlink:href="#DejaVuSans-61" x="68.505859"/>
      <use xlink:href="#DejaVuSans-63" x="129.785156"/>
      <use xlink:href="#DejaVuSans-74" x="184.765625"/>
      <use xlink:href="#DejaVuSans-20" x="223.974609"/>
      <use xlink:href="#DejaVuSans-4e" x="255.761719"/>
      <use xlink:href="#DejaVuSans-4e" x="330.566406"/>
      <use xlink:href="#DejaVuSans-20" x="405.371094"/>
      <use xlink:href="#DejaVuSans-6f" x="437.158203"/>
      <use xlink:href="#DejaVuSans-75" x="498.339844"/>
      <use xlink:href="#DejaVuSans-74" x="561.71875"/>
      <use xlink:href="#DejaVuSans-70" x="600.927734"/>
      <use xlink:href="#DejaVuSans-75" x="664.404297"/>
      <use xlink:href="#DejaVuSans-74" x="727.783203"/>
     </g>
    </g>
    <g id="PathCollection_2">
     <g>
      <use xlink:href="#ma9cefc1a48" x="550.631875" y="185.67375" style="stroke: #000000"/>
     </g>
    </g>
    <g id="text_25">
     <!-- Simulated data -->
     <g transform="translate(568.631875 188.29875) scale(0.1 -0.1)">
      <defs>
       <path id="DejaVuSans-53" d="M 3425 4513 
L 3425 3897 
Q 3066 4069 2747 4153 
Q 2428 4238 2131 4238 
Q 1616 4238 1336 4038 
Q 1056 3838 1056 3469 
Q 1056 3159 1242 3001 
Q 1428 2844 1947 2747 
L 2328 2669 
Q 3034 2534 3370 2195 
Q 3706 1856 3706 1288 
Q 3706 609 3251 259 
Q 2797 -91 1919 -91 
Q 1588 -91 1214 -16 
Q 841 59 441 206 
L 441 856 
Q 825 641 1194 531 
Q 1563 422 1919 422 
Q 2459 422 2753 634 
Q 3047 847 3047 1241 
Q 3047 1584 2836 1778 
Q 2625 1972 2144 2069 
L 1759 2144 
Q 1053 2284 737 2584 
Q 422 2884 422 3419 
Q 422 4038 858 4394 
Q 1294 4750 2059 4750 
Q 2388 4750 2728 4690 
Q 3069 4631 3425 4513 
z
" transform="scale(0.015625)"/>
      </defs>
      <use xlink:href="#DejaVuSans-53"/>
      <use xlink:href="#DejaVuSans-69" x="63.476562"/>
      <use xlink:href="#DejaVuSans-6d" x="91.259766"/>
      <use xlink:href="#DejaVuSans-75" x="188.671875"/>
      <use xlink:href="#DejaVuSans-6c" x="252.050781"/>
      <use xlink:href="#DejaVuSans-61" x="279.833984"/>
      <use xlink:href="#DejaVuSans-74" x="341.113281"/>
      <use xlink:href="#DejaVuSans-65" x="380.322266"/>
      <use xlink:href="#DejaVuSans-64" x="441.845703"/>
      <use xlink:href="#DejaVuSans-20" x="505.322266"/>
      <use xlink:href="#DejaVuSans-64" x="537.109375"/>
      <use xlink:href="#DejaVuSans-61" x="600.585938"/>
      <use xlink:href="#DejaVuSans-74" x="661.865234"/>
      <use xlink:href="#DejaVuSans-61" x="701.074219"/>
     </g>
    </g>
   </g>
  </g>
 </g>
 <defs>
  <clipPath id="p88111cf645">
   <rect x="42.828125" y="22.318125" width="446.4" height="221.76"/>
  </clipPath>
 </defs>
</svg>
